<?xml version="1.0" encoding="UTF-8"?>
<svg id="Capa_2" data-name="Capa 2" xmlns="http://www.w3.org/2000/svg" viewBox="0 0 160.6 33.02">
  <defs>
    <style>
      .cls-1 {
        fill: #fff;
      }

      .cls-2 {
        fill: none;
      }
    </style>
  </defs>
  <g id="Capa_1-2" data-name="Capa 1">
    <g>
      <g>
        <g>
          <path class="cls-1" d="M28.81,6.91l3.45,7.01h-.95l-3.24-6.71h.47l-3.25,6.71h-.95l3.45-7.01h1.04ZM25.79,12.18v-.75h4.94v.75h-4.94Z"/>
          <path class="cls-1" d="M36.22,6.91c.78,0,1.46.15,2.06.44.59.29,1.05.7,1.38,1.23.33.53.5,1.14.5,1.84s-.17,1.3-.5,1.83c-.33.53-.79.94-1.38,1.23-.59.3-1.28.44-2.06.44h-3v-7.01h3ZM34.09,13.69l-.56-.54h2.72c.6,0,1.12-.12,1.57-.35.45-.23.8-.55,1.05-.96s.38-.88.38-1.42-.13-1.03-.38-1.44-.6-.73-1.05-.96c-.45-.23-.97-.35-1.57-.35h-2.72l.56-.53v6.54Z"/>
          <path class="cls-1" d="M45,14.04c-.78,0-1.47-.15-2.06-.46-.6-.3-1.06-.73-1.39-1.28-.33-.54-.5-1.18-.5-1.89s.17-1.36.5-1.9c.33-.54.79-.97,1.39-1.27.6-.3,1.28-.46,2.06-.46s1.46.15,2.06.46c.59.31,1.05.73,1.38,1.27.33.54.5,1.17.5,1.9s-.17,1.35-.5,1.89c-.33.55-.79.97-1.38,1.28-.59.31-1.28.46-2.06.46ZM45,13.25c.62,0,1.15-.12,1.61-.35.46-.23.81-.56,1.06-.99.25-.42.37-.92.37-1.5s-.12-1.08-.37-1.51c-.25-.42-.6-.75-1.06-.98s-.99-.35-1.61-.35-1.15.12-1.61.35-.81.56-1.06.98-.38.93-.38,1.51.13,1.07.38,1.5.61.75,1.06.99c.46.23.99.35,1.61.35Z"/>
          <path class="cls-1" d="M54.19,10.42l.1-.22c.57,0,1.02.09,1.37.26s.6.39.77.66.24.58.24.92c0,.37-.09.69-.27.98-.18.28-.44.51-.78.67s-.77.24-1.27.24h-4.42l.55-3.6-.55-3.41h4.26c.65,0,1.15.15,1.49.45.35.3.52.71.52,1.24,0,.27-.07.54-.2.81-.13.26-.35.49-.64.67-.29.18-.69.29-1.18.33ZM50.83,13.63l-.34-.44h3.81c.46,0,.82-.1,1.08-.31.26-.21.39-.51.39-.9,0-.42-.15-.74-.46-.96-.31-.22-.76-.34-1.36-.34h-3.03v-.71h2.98c.4,0,.73-.11,1-.33.26-.22.4-.54.4-.95,0-.31-.11-.56-.32-.75-.21-.2-.53-.29-.95-.29h-3.54l.34-.44.5,3.12-.5,3.31Z"/>
          <path class="cls-1" d="M59.11,10.42l-.53,3.29-.47-.55h5.48v.77h-5.91l.58-3.51-.58-3.51h5.86v.77h-5.43l.47-.55.53,3.29ZM63.34,10.04v.75h-4.78v-.75h4.78Z"/>
          <path class="cls-1" d="M67.54,6.91h.88v7.01h-.88v-7.01Z"/>
          <path class="cls-1" d="M70.99,6.91v6.62l-.39-.38h5.3v.78h-5.79v-7.01h.88Z"/>
          <path class="cls-1" d="M77.21,10.98c0,.46.09.86.29,1.2.19.34.46.6.82.79.36.19.77.28,1.25.28s.9-.09,1.25-.28c.35-.19.62-.45.81-.79.19-.34.29-.74.29-1.2v-4.07h.88v4.09c0,.61-.14,1.14-.41,1.59-.27.46-.65.81-1.14,1.07-.48.26-1.05.38-1.69.38s-1.21-.13-1.69-.38c-.49-.26-.86-.61-1.14-1.07s-.41-.99-.41-1.59v-4.09h.88v4.07Z"/>
          <path class="cls-1" d="M83.94,11.65h.89c.04.33.17.62.39.87s.51.44.87.58c.36.13.77.2,1.24.2.7,0,1.26-.12,1.68-.36s.62-.57.62-.98c0-.32-.13-.56-.39-.73-.26-.17-.71-.29-1.35-.37l-1.36-.17c-.85-.1-1.47-.3-1.84-.61s-.56-.72-.56-1.25c0-.42.12-.78.37-1.09.25-.31.6-.54,1.05-.71.45-.17.98-.25,1.58-.25s1.14.09,1.61.28c.47.18.84.44,1.12.77.28.33.43.71.45,1.15h-.89c-.04-.3-.16-.56-.36-.77-.2-.21-.47-.38-.8-.5-.33-.12-.72-.18-1.16-.18-.64,0-1.15.11-1.54.34-.38.23-.58.54-.58.95,0,.31.13.55.38.71s.68.29,1.29.36l1.33.18c.62.07,1.11.18,1.47.33.36.14.63.33.79.57.16.24.24.54.24.91,0,.44-.13.83-.4,1.15-.27.32-.64.57-1.12.75-.48.17-1.04.26-1.67.26s-1.21-.1-1.71-.3c-.5-.2-.89-.48-1.19-.84-.29-.36-.45-.77-.48-1.25Z"/>
          <path class="cls-1" d="M90.73,6.91h6.9v.78h-6.9v-.78ZM93.74,7.33h.88v6.59h-.88v-6.59Z"/>
          <path class="cls-1" d="M99.21,10.22h3.01c.46,0,.83-.12,1.11-.35.28-.23.42-.54.42-.92s-.14-.7-.42-.93-.65-.34-1.11-.34h-3.13l.39-.47v6.71h-.88v-7.01h3.65c.47,0,.89.09,1.24.26.36.17.63.41.84.71.2.31.3.66.3,1.07s-.1.75-.3,1.06c-.2.31-.48.54-.84.72s-.77.26-1.24.26h-3.04v-.76ZM100.77,10.64h1.08l2.93,3.28h-1.09l-2.92-3.28Z"/>
          <path class="cls-1" d="M109.56,6.91l3.45,7.01h-.95l-3.24-6.71h.47l-3.25,6.71h-.95l3.45-7.01h1.04ZM106.54,12.18v-.75h4.94v.75h-4.94Z"/>
          <path class="cls-1" d="M111.98,6.91h6.9v.78h-6.9v-.78ZM114.99,7.33h.88v6.59h-.88v-6.59Z"/>
          <path class="cls-1" d="M122.93,14.04c-.78,0-1.47-.15-2.06-.46-.6-.3-1.06-.73-1.39-1.28-.33-.54-.5-1.18-.5-1.89s.17-1.36.5-1.9c.33-.54.79-.97,1.39-1.27.6-.3,1.28-.46,2.06-.46s1.46.15,2.06.46c.59.31,1.05.73,1.38,1.27.33.54.5,1.17.5,1.9s-.17,1.35-.5,1.89c-.33.55-.79.97-1.38,1.28-.59.31-1.28.46-2.06.46ZM122.93,13.25c.62,0,1.15-.12,1.61-.35.46-.23.81-.56,1.06-.99.25-.42.37-.92.37-1.5s-.12-1.08-.37-1.51c-.25-.42-.6-.75-1.06-.98s-.99-.35-1.61-.35-1.15.12-1.61.35-.81.56-1.06.98-.38.93-.38,1.51.13,1.07.38,1.5.61.75,1.06.99c.46.23.99.35,1.61.35Z"/>
          <path class="cls-1" d="M128.78,10.22h3.01c.46,0,.83-.12,1.11-.35.28-.23.42-.54.42-.92s-.14-.7-.42-.93-.65-.34-1.11-.34h-3.13l.39-.47v6.71h-.88v-7.01h3.65c.47,0,.89.09,1.24.26.36.17.63.41.84.71.2.31.3.66.3,1.07s-.1.75-.3,1.06c-.2.31-.48.54-.84.72s-.77.26-1.24.26h-3.04v-.76ZM130.33,10.64h1.08l2.93,3.28h-1.09l-2.92-3.28Z"/>
        </g>
        <g>
          <path class="cls-1" d="M30.15,24.28c-.06.05-.07.1-.05.17.21.91.43,1.82.64,2.74,0,.03.01.06.02.11-.17-.1-.33-.2-.49-.29-.67-.41-1.34-.81-2.01-1.22-.06-.04-.1-.04-.17,0-.8.49-1.6.97-2.4,1.45-.03.02-.06.04-.11.06.04-.19.08-.36.12-.53.18-.78.36-1.56.55-2.34.02-.06,0-.1-.05-.14-.71-.61-1.43-1.23-2.14-1.85-.02-.02-.04-.04-.08-.08.73-.06,1.43-.12,2.14-.18.26-.02.52-.04.78-.06.07,0,.11-.03.14-.1.36-.85.72-1.7,1.08-2.55.02-.04.03-.08.06-.14.03.06.04.1.06.14.36.85.72,1.7,1.08,2.55.03.07.07.1.14.1.58.05,1.16.1,1.74.15.38.03.76.06,1.17.1-.04.03-.06.06-.09.08-.71.61-1.42,1.23-2.13,1.84Z"/>
          <path class="cls-1" d="M42.14,24.28c-.06.05-.07.1-.05.17.21.91.43,1.82.64,2.74,0,.03.01.06.02.11-.17-.1-.33-.2-.49-.29-.67-.41-1.34-.81-2.01-1.22-.06-.04-.1-.04-.17,0-.8.49-1.6.97-2.4,1.45-.03.02-.06.04-.11.06.04-.19.08-.36.12-.53.18-.78.36-1.56.55-2.34.02-.06,0-.1-.05-.14-.71-.61-1.43-1.23-2.14-1.85-.02-.02-.04-.04-.08-.08.73-.06,1.43-.12,2.14-.18.26-.02.52-.04.78-.06.07,0,.11-.03.14-.1.36-.85.72-1.7,1.08-2.55.02-.04.03-.08.06-.14.03.06.04.1.06.14.36.85.72,1.7,1.08,2.55.03.07.07.1.14.1.58.05,1.16.1,1.74.15.38.03.76.06,1.17.1-.04.03-.06.06-.09.08-.71.61-1.42,1.23-2.13,1.84Z"/>
          <path class="cls-1" d="M54.13,24.28c-.06.05-.07.1-.05.17.21.91.43,1.82.64,2.74,0,.03.01.06.02.11-.17-.1-.33-.2-.49-.29-.67-.41-1.34-.81-2.01-1.22-.06-.04-.1-.04-.17,0-.8.49-1.6.97-2.4,1.45-.03.02-.06.04-.11.06.04-.19.08-.36.12-.53.18-.78.36-1.56.55-2.34.02-.06,0-.1-.05-.14-.71-.61-1.43-1.23-2.14-1.85-.02-.02-.04-.04-.08-.08.73-.06,1.43-.12,2.14-.18.26-.02.52-.04.78-.06.07,0,.11-.03.14-.1.36-.85.72-1.7,1.08-2.55.02-.04.03-.08.06-.14.03.06.04.1.06.14.36.85.72,1.7,1.08,2.55.03.07.07.1.14.1.58.05,1.16.1,1.74.15.38.03.76.06,1.17.1-.04.03-.06.06-.09.08-.71.61-1.42,1.23-2.13,1.84Z"/>
          <path class="cls-1" d="M66.12,24.28c-.06.05-.07.1-.05.17.21.91.43,1.82.64,2.74,0,.03.01.06.02.11-.17-.1-.33-.2-.49-.29-.67-.41-1.34-.81-2.01-1.22-.06-.04-.1-.04-.17,0-.8.49-1.6.97-2.4,1.45-.03.02-.06.04-.11.06.04-.19.08-.36.12-.53.18-.78.36-1.56.55-2.34.02-.06,0-.1-.05-.14-.71-.61-1.43-1.23-2.14-1.85-.02-.02-.04-.04-.08-.08.73-.06,1.43-.12,2.14-.18.26-.02.52-.04.78-.06.07,0,.11-.03.14-.1.36-.85.72-1.7,1.08-2.55.02-.04.03-.08.06-.14.03.06.04.1.06.14.36.85.72,1.7,1.08,2.55.03.07.07.1.14.1.58.05,1.16.1,1.74.15.38.03.76.06,1.17.1-.04.03-.06.06-.09.08-.71.61-1.42,1.23-2.13,1.84Z"/>
          <path class="cls-1" d="M78.11,24.28c-.06.05-.07.1-.05.17.21.91.43,1.82.64,2.74,0,.03.01.06.02.11-.17-.1-.33-.2-.49-.29-.67-.41-1.34-.81-2.01-1.22-.06-.04-.1-.04-.17,0-.8.49-1.6.97-2.4,1.45-.03.02-.06.04-.11.06.04-.19.08-.36.12-.53.18-.78.36-1.56.55-2.34.02-.06,0-.1-.05-.14-.71-.61-1.43-1.23-2.14-1.85-.02-.02-.04-.04-.08-.08.73-.06,1.43-.12,2.14-.18.26-.02.52-.04.78-.06.07,0,.11-.03.14-.1.36-.85.72-1.7,1.08-2.55.02-.04.03-.08.06-.14.03.06.04.1.06.14.36.85.72,1.7,1.08,2.55.03.07.07.1.14.1.58.05,1.16.1,1.74.15.38.03.76.06,1.17.1-.04.03-.06.06-.09.08-.71.61-1.42,1.23-2.13,1.84Z"/>
        </g>
        <g>
          <path class="cls-1" d="M17.8,5.02h-9.5c-1.35,0-2.41,1.01-2.58,2.32v9.66c.17,1.31,1.24,2.32,2.58,2.32h9.5c1.36,0,2.45-1.04,2.58-2.38V7.41c-.13-1.34-1.23-2.38-2.58-2.38ZM13.34,15.12l-.52-1.52h-2.27l-.49,1.52h-1.22s-.08-.02-.08-.02c-.02,0-.01-.07,0-.09l1.97-5.67c.08-.22.09-.42.1-.65h1.69s2.28,6.43,2.28,6.43c-.5.02-.96.02-1.44.01ZM16.77,15.13h-1.36s0-4.89,0-4.89h1.37s0,4.89,0,4.89ZM16.05,9.73c-.39-.02-.68-.29-.72-.68-.05-.48.29-.85.77-.86.43,0,.74.31.75.74,0,.47-.34.82-.81.8Z"/>
          <polygon class="cls-1" points="12.45 12.36 10.9 12.36 11.66 9.8 12.45 12.36"/>
        </g>
      </g>
      <rect class="cls-2" width="160.6" height="33.02"/>
    </g>
  </g>
</svg>