<?xml version="1.0" encoding="UTF-8"?>
<svg id="Capa_2" data-name="Capa 2" xmlns="http://www.w3.org/2000/svg" viewBox="0 0 160.6 33.02">
  <defs>
    <style>
      .cls-1 {
        fill: #fff;
      }

      .cls-2 {
        fill: none;
      }
    </style>
  </defs>
  <g id="Capa_1-2" data-name="Capa 1">
    <g>
      <g>
        <g>
          <path class="cls-1" d="M28.81,8.39l3.45,7.01h-.95l-3.24-6.71h.47l-3.25,6.71h-.95l3.45-7.01h1.04ZM25.79,13.66v-.75h4.94v.75h-4.94Z"/>
          <path class="cls-1" d="M36.22,8.39c.78,0,1.46.15,2.06.44.59.29,1.05.7,1.38,1.23.33.53.5,1.14.5,1.84s-.17,1.3-.5,1.83c-.33.53-.79.94-1.38,1.23-.59.3-1.28.44-2.06.44h-3v-7.01h3ZM34.09,15.16l-.56-.54h2.72c.6,0,1.12-.12,1.57-.35.45-.23.8-.55,1.05-.96s.38-.88.38-1.42-.13-1.03-.38-1.44-.6-.73-1.05-.96c-.45-.23-.97-.35-1.57-.35h-2.72l.56-.53v6.54Z"/>
          <path class="cls-1" d="M45,15.52c-.78,0-1.47-.15-2.06-.46-.6-.3-1.06-.73-1.39-1.28-.33-.54-.5-1.18-.5-1.89s.17-1.36.5-1.9c.33-.54.79-.97,1.39-1.27.6-.3,1.28-.46,2.06-.46s1.46.15,2.06.46c.59.31,1.05.73,1.38,1.27.33.54.5,1.17.5,1.9s-.17,1.35-.5,1.89c-.33.55-.79.97-1.38,1.28-.59.31-1.28.46-2.06.46ZM45,14.73c.62,0,1.15-.12,1.61-.35.46-.23.81-.56,1.06-.99.25-.42.37-.92.37-1.5s-.12-1.08-.37-1.51c-.25-.42-.6-.75-1.06-.98s-.99-.35-1.61-.35-1.15.12-1.61.35-.81.56-1.06.98-.38.93-.38,1.51.13,1.07.38,1.5.61.75,1.06.99c.46.23.99.35,1.61.35Z"/>
          <path class="cls-1" d="M54.19,11.89l.1-.22c.57,0,1.02.09,1.37.26s.6.39.77.66.24.58.24.92c0,.37-.09.69-.27.98-.18.28-.44.51-.78.67s-.77.24-1.27.24h-4.42l.55-3.6-.55-3.41h4.26c.65,0,1.15.15,1.49.45.35.3.52.71.52,1.24,0,.27-.07.54-.2.81-.13.26-.35.49-.64.67-.29.18-.69.29-1.18.33ZM50.83,15.11l-.34-.44h3.81c.46,0,.82-.1,1.08-.31.26-.21.39-.51.39-.9,0-.42-.15-.74-.46-.96-.31-.22-.76-.34-1.36-.34h-3.03v-.71h2.98c.4,0,.73-.11,1-.33.26-.22.4-.54.4-.95,0-.31-.11-.56-.32-.75-.21-.2-.53-.29-.95-.29h-3.54l.34-.44.5,3.12-.5,3.31Z"/>
          <path class="cls-1" d="M59.11,11.89l-.53,3.29-.47-.55h5.48v.77h-5.91l.58-3.51-.58-3.51h5.86v.77h-5.43l.47-.55.53,3.29ZM63.34,11.52v.75h-4.78v-.75h4.78Z"/>
          <path class="cls-1" d="M71.13,8.39c.49,0,.92.09,1.28.26.36.17.64.42.84.73.2.31.3.68.3,1.09s-.1.78-.3,1.09c-.2.31-.48.56-.84.74-.36.18-.79.27-1.28.27h-3.2v-.77h3.18c.47,0,.85-.12,1.13-.36.28-.24.42-.56.42-.97s-.14-.73-.42-.96c-.28-.24-.65-.35-1.13-.35h-3.09l.39-.43v6.68h-.88v-7.01h3.59Z"/>
          <path class="cls-1" d="M74.64,8.39h.88v7.01h-.88v-7.01ZM75.09,11.49h5.82v.78h-5.82v-.78ZM80.44,8.39h.88v7.01h-.88v-7.01Z"/>
          <path class="cls-1" d="M86.56,15.52c-.78,0-1.47-.15-2.06-.46-.6-.3-1.06-.73-1.39-1.28-.33-.54-.5-1.18-.5-1.89s.17-1.36.5-1.9c.33-.54.79-.97,1.39-1.27.6-.3,1.28-.46,2.06-.46s1.46.15,2.06.46c.59.31,1.05.73,1.38,1.27.33.54.5,1.17.5,1.9s-.17,1.35-.5,1.89c-.33.55-.79.97-1.38,1.28-.59.31-1.28.46-2.06.46ZM86.56,14.73c.62,0,1.15-.12,1.61-.35.46-.23.81-.56,1.06-.99.25-.42.37-.92.37-1.5s-.12-1.08-.37-1.51c-.25-.42-.6-.75-1.06-.98s-.99-.35-1.61-.35-1.15.12-1.61.35-.81.56-1.06.98-.38.93-.38,1.51.13,1.07.38,1.5.61.75,1.06.99c.46.23.99.35,1.61.35Z"/>
          <path class="cls-1" d="M90.61,8.39h6.9v.78h-6.9v-.78ZM93.62,8.81h.88v6.59h-.88v-6.59Z"/>
          <path class="cls-1" d="M101.57,15.52c-.78,0-1.47-.15-2.06-.46-.6-.3-1.06-.73-1.39-1.28-.33-.54-.5-1.18-.5-1.89s.17-1.36.5-1.9c.33-.54.79-.97,1.39-1.27.6-.3,1.28-.46,2.06-.46s1.46.15,2.06.46c.59.31,1.05.73,1.38,1.27.33.54.5,1.17.5,1.9s-.17,1.35-.5,1.89c-.33.55-.79.97-1.38,1.28-.59.31-1.28.46-2.06.46ZM101.57,14.73c.62,0,1.15-.12,1.61-.35.46-.23.81-.56,1.06-.99.25-.42.37-.92.37-1.5s-.12-1.08-.37-1.51c-.25-.42-.6-.75-1.06-.98s-.99-.35-1.61-.35-1.15.12-1.61.35-.81.56-1.06.98-.38.93-.38,1.51.13,1.07.38,1.5.61.75,1.06.99c.46.23.99.35,1.61.35Z"/>
          <path class="cls-1" d="M106.34,13.13h.89c.04.33.17.62.39.87s.51.44.87.58c.36.13.77.2,1.24.2.7,0,1.26-.12,1.68-.36s.62-.57.62-.98c0-.32-.13-.56-.39-.73-.26-.17-.71-.29-1.35-.37l-1.36-.17c-.85-.1-1.47-.3-1.84-.61s-.56-.72-.56-1.25c0-.42.12-.78.37-1.09.25-.31.6-.54,1.05-.71.45-.17.98-.25,1.58-.25s1.14.09,1.61.28c.47.18.84.44,1.12.77.28.33.43.71.45,1.15h-.89c-.04-.3-.16-.56-.36-.77-.2-.21-.47-.38-.8-.5-.33-.12-.72-.18-1.16-.18-.64,0-1.15.11-1.54.34-.38.23-.58.54-.58.95,0,.31.13.55.38.71s.68.29,1.29.36l1.33.18c.62.07,1.11.18,1.47.33.36.14.63.33.79.57.16.24.24.54.24.91,0,.44-.13.83-.4,1.15-.27.32-.64.57-1.12.75-.48.17-1.04.26-1.67.26s-1.21-.1-1.71-.3c-.5-.2-.89-.48-1.19-.84-.29-.36-.45-.77-.48-1.25Z"/>
          <path class="cls-1" d="M114.15,8.39h.88v7.01h-.88v-7.01ZM114.6,11.49h5.82v.78h-5.82v-.78ZM119.95,8.39h.88v7.01h-.88v-7.01Z"/>
          <path class="cls-1" d="M126.07,15.52c-.78,0-1.47-.15-2.06-.46-.6-.3-1.06-.73-1.39-1.28-.33-.54-.5-1.18-.5-1.89s.17-1.36.5-1.9c.33-.54.79-.97,1.39-1.27.6-.3,1.28-.46,2.06-.46s1.46.15,2.06.46c.59.31,1.05.73,1.38,1.27.33.54.5,1.17.5,1.9s-.17,1.35-.5,1.89c-.33.55-.79.97-1.38,1.28-.59.31-1.28.46-2.06.46ZM126.07,14.73c.62,0,1.15-.12,1.61-.35.46-.23.81-.56,1.06-.99.25-.42.37-.92.37-1.5s-.12-1.08-.37-1.51c-.25-.42-.6-.75-1.06-.98s-.99-.35-1.61-.35-1.15.12-1.61.35-.81.56-1.06.98-.38.93-.38,1.51.13,1.07.38,1.5.61.75,1.06.99c.46.23.99.35,1.61.35Z"/>
          <path class="cls-1" d="M134.89,8.39c.49,0,.92.09,1.28.26.36.17.64.42.84.73.2.31.3.68.3,1.09s-.1.78-.3,1.09c-.2.31-.48.56-.84.74-.36.18-.79.27-1.28.27h-3.2v-.77h3.18c.47,0,.85-.12,1.13-.36.28-.24.42-.56.42-.97s-.14-.73-.42-.96c-.28-.24-.65-.35-1.13-.35h-3.09l.39-.43v6.68h-.88v-7.01h3.59Z"/>
        </g>
        <g>
          <path class="cls-1" d="M30.15,24.13c-.06.05-.07.1-.05.17.21.91.43,1.82.64,2.74,0,.03.01.06.02.11-.17-.1-.33-.2-.49-.29-.67-.41-1.34-.81-2.01-1.22-.06-.04-.1-.04-.17,0-.8.49-1.6.97-2.4,1.45-.03.02-.06.04-.11.06.04-.19.08-.36.12-.53.18-.78.36-1.56.55-2.34.02-.06,0-.1-.05-.14-.71-.61-1.43-1.23-2.14-1.85-.02-.02-.04-.04-.08-.08.73-.06,1.43-.12,2.14-.18.26-.02.52-.04.78-.06.07,0,.11-.03.14-.1.36-.85.72-1.7,1.08-2.55.02-.04.03-.08.06-.14.03.06.04.1.06.14.36.85.72,1.7,1.08,2.55.03.07.07.1.14.1.58.05,1.16.1,1.74.15.38.03.76.06,1.17.1-.04.03-.06.06-.09.08-.71.61-1.42,1.23-2.13,1.84Z"/>
          <path class="cls-1" d="M42.14,24.13c-.06.05-.07.1-.05.17.21.91.43,1.82.64,2.74,0,.03.01.06.02.11-.17-.1-.33-.2-.49-.29-.67-.41-1.34-.81-2.01-1.22-.06-.04-.1-.04-.17,0-.8.49-1.6.97-2.4,1.45-.03.02-.06.04-.11.06.04-.19.08-.36.12-.53.18-.78.36-1.56.55-2.34.02-.06,0-.1-.05-.14-.71-.61-1.43-1.23-2.14-1.85-.02-.02-.04-.04-.08-.08.73-.06,1.43-.12,2.14-.18.26-.02.52-.04.78-.06.07,0,.11-.03.14-.1.36-.85.72-1.7,1.08-2.55.02-.04.03-.08.06-.14.03.06.04.1.06.14.36.85.72,1.7,1.08,2.55.03.07.07.1.14.1.58.05,1.16.1,1.74.15.38.03.76.06,1.17.1-.04.03-.06.06-.09.08-.71.61-1.42,1.23-2.13,1.84Z"/>
          <path class="cls-1" d="M54.13,24.13c-.06.05-.07.1-.05.17.21.91.43,1.82.64,2.74,0,.03.01.06.02.11-.17-.1-.33-.2-.49-.29-.67-.41-1.34-.81-2.01-1.22-.06-.04-.1-.04-.17,0-.8.49-1.6.97-2.4,1.45-.03.02-.06.04-.11.06.04-.19.08-.36.12-.53.18-.78.36-1.56.55-2.34.02-.06,0-.1-.05-.14-.71-.61-1.43-1.23-2.14-1.85-.02-.02-.04-.04-.08-.08.73-.06,1.43-.12,2.14-.18.26-.02.52-.04.78-.06.07,0,.11-.03.14-.1.36-.85.72-1.7,1.08-2.55.02-.04.03-.08.06-.14.03.06.04.1.06.14.36.85.72,1.7,1.08,2.55.03.07.07.1.14.1.58.05,1.16.1,1.74.15.38.03.76.06,1.17.1-.04.03-.06.06-.09.08-.71.61-1.42,1.23-2.13,1.84Z"/>
          <path class="cls-1" d="M66.12,24.13c-.06.05-.07.1-.05.17.21.91.43,1.82.64,2.74,0,.03.01.06.02.11-.17-.1-.33-.2-.49-.29-.67-.41-1.34-.81-2.01-1.22-.06-.04-.1-.04-.17,0-.8.49-1.6.97-2.4,1.45-.03.02-.06.04-.11.06.04-.19.08-.36.12-.53.18-.78.36-1.56.55-2.34.02-.06,0-.1-.05-.14-.71-.61-1.43-1.23-2.14-1.85-.02-.02-.04-.04-.08-.08.73-.06,1.43-.12,2.14-.18.26-.02.52-.04.78-.06.07,0,.11-.03.14-.1.36-.85.72-1.7,1.08-2.55.02-.04.03-.08.06-.14.03.06.04.1.06.14.36.85.72,1.7,1.08,2.55.03.07.07.1.14.1.58.05,1.16.1,1.74.15.38.03.76.06,1.17.1-.04.03-.06.06-.09.08-.71.61-1.42,1.23-2.13,1.84Z"/>
          <path class="cls-1" d="M78.11,24.13c-.06.05-.07.1-.05.17.21.91.43,1.82.64,2.74,0,.03.01.06.02.11-.17-.1-.33-.2-.49-.29-.67-.41-1.34-.81-2.01-1.22-.06-.04-.1-.04-.17,0-.8.49-1.6.97-2.4,1.45-.03.02-.06.04-.11.06.04-.19.08-.36.12-.53.18-.78.36-1.56.55-2.34.02-.06,0-.1-.05-.14-.71-.61-1.43-1.23-2.14-1.85-.02-.02-.04-.04-.08-.08.73-.06,1.43-.12,2.14-.18.26-.02.52-.04.78-.06.07,0,.11-.03.14-.1.36-.85.72-1.7,1.08-2.55.02-.04.03-.08.06-.14.03.06.04.1.06.14.36.85.72,1.7,1.08,2.55.03.07.07.1.14.1.58.05,1.16.1,1.74.15.38.03.76.06,1.17.1-.04.03-.06.06-.09.08-.71.61-1.42,1.23-2.13,1.84Z"/>
        </g>
        <g>
          <path class="cls-1" d="M16.92,5.87h-8.84c-1.25,0-2.24.94-2.4,2.16v8.99c.16,1.22,1.15,2.15,2.4,2.15h8.84c1.26,0,2.28-.96,2.4-2.21v-8.87c-.13-1.25-1.14-2.22-2.4-2.22ZM12.83,12.27c-.52,1.04-1.75,1.17-2.85,1.09v1.9h-1.23s0-5.97,0-5.97l1.96-.04c.44,0,.85.08,1.25.26.51.25.88.67,1.02,1.23.12.51.09,1.05-.14,1.53ZM16.34,15.09c-.63.4-1.61.36-2.33.17-.12-.03-.22-.08-.35-.15v-1.14c.51.28,1.01.41,1.56.39.24,0,.48-.07.51-.28.07-.52-1.54-.52-1.96-1.49-.25-.59-.03-1.28.51-1.62.54-.35,1.19-.34,1.83-.26.22.03.41.08.62.17v1s-.02.06-.02.06c0,.02-.06.02-.09.01-.47-.22-1-.31-1.51-.25-.12.04-.22.1-.25.21-.07.26.3.43.61.55.75.29,1.49.6,1.49,1.48,0,.47-.22.89-.62,1.15Z"/>
          <path class="cls-1" d="M11.81,11.41c-.07.9-1.03.94-1.82.89v-1.92h.62c.2-.01.4.02.59.08.42.14.64.51.61.95Z"/>
        </g>
      </g>
      <rect class="cls-2" width="160.6" height="33.02"/>
    </g>
  </g>
</svg>