<?xml version="1.0" encoding="UTF-8"?>
<svg id="Capa_2" data-name="Capa 2" xmlns="http://www.w3.org/2000/svg" viewBox="0 0 160.6 33.02">
  <defs>
    <style>
      .cls-1 {
        fill: #fff;
      }

      .cls-2 {
        fill: none;
      }
    </style>
  </defs>
  <g id="Capa_1-2" data-name="Capa 1">
    <g>
      <g>
        <g>
          <path class="cls-1" d="M30.13,24.63c-.06.05-.07.1-.05.17.21.91.43,1.82.64,2.74,0,.03.01.06.02.11-.17-.1-.33-.2-.49-.29-.67-.41-1.34-.81-2.01-1.22-.06-.04-.1-.04-.17,0-.8.49-1.6.97-2.4,1.45-.03.02-.06.04-.11.06.04-.19.08-.36.12-.53.18-.78.36-1.56.55-2.34.02-.06,0-.1-.05-.14-.71-.61-1.43-1.23-2.14-1.85-.02-.02-.04-.04-.08-.08.73-.06,1.43-.12,2.14-.18.26-.02.52-.04.78-.06.07,0,.11-.03.14-.1.36-.85.72-1.7,1.08-2.55.02-.04.03-.08.06-.14.03.06.04.1.06.14.36.85.72,1.7,1.08,2.55.03.07.07.1.14.1.58.05,1.16.1,1.74.15.38.03.76.06,1.17.1-.04.03-.06.06-.09.08-.71.61-1.42,1.23-2.13,1.84Z"/>
          <path class="cls-1" d="M42.12,24.63c-.06.05-.07.1-.05.17.21.91.43,1.82.64,2.74,0,.03.01.06.02.11-.17-.1-.33-.2-.49-.29-.67-.41-1.34-.81-2.01-1.22-.06-.04-.1-.04-.17,0-.8.49-1.6.97-2.4,1.45-.03.02-.06.04-.11.06.04-.19.08-.36.12-.53.18-.78.36-1.56.55-2.34.02-.06,0-.1-.05-.14-.71-.61-1.43-1.23-2.14-1.85-.02-.02-.04-.04-.08-.08.73-.06,1.43-.12,2.14-.18.26-.02.52-.04.78-.06.07,0,.11-.03.14-.1.36-.85.72-1.7,1.08-2.55.02-.04.03-.08.06-.14.03.06.04.1.06.14.36.85.72,1.7,1.08,2.55.03.07.07.1.14.1.58.05,1.16.1,1.74.15.38.03.76.06,1.17.1-.04.03-.06.06-.09.08-.71.61-1.42,1.23-2.13,1.84Z"/>
          <path class="cls-1" d="M54.11,24.63c-.06.05-.07.1-.05.17.21.91.43,1.82.64,2.74,0,.03.01.06.02.11-.17-.1-.33-.2-.49-.29-.67-.41-1.34-.81-2.01-1.22-.06-.04-.1-.04-.17,0-.8.49-1.6.97-2.4,1.45-.03.02-.06.04-.11.06.04-.19.08-.36.12-.53.18-.78.36-1.56.55-2.34.02-.06,0-.1-.05-.14-.71-.61-1.43-1.23-2.14-1.85-.02-.02-.04-.04-.08-.08.73-.06,1.43-.12,2.14-.18.26-.02.52-.04.78-.06.07,0,.11-.03.14-.1.36-.85.72-1.7,1.08-2.55.02-.04.03-.08.06-.14.03.06.04.1.06.14.36.85.72,1.7,1.08,2.55.03.07.07.1.14.1.58.05,1.16.1,1.74.15.38.03.76.06,1.17.1-.04.03-.06.06-.09.08-.71.61-1.42,1.23-2.13,1.84Z"/>
          <path class="cls-1" d="M66.1,24.63c-.06.05-.07.1-.05.17.21.91.43,1.82.64,2.74,0,.03.01.06.02.11-.17-.1-.33-.2-.49-.29-.67-.41-1.34-.81-2.01-1.22-.06-.04-.1-.04-.17,0-.8.49-1.6.97-2.4,1.45-.03.02-.06.04-.11.06.04-.19.08-.36.12-.53.18-.78.36-1.56.55-2.34.02-.06,0-.1-.05-.14-.71-.61-1.43-1.23-2.14-1.85-.02-.02-.04-.04-.08-.08.73-.06,1.43-.12,2.14-.18.26-.02.52-.04.78-.06.07,0,.11-.03.14-.1.36-.85.72-1.7,1.08-2.55.02-.04.03-.08.06-.14.03.06.04.1.06.14.36.85.72,1.7,1.08,2.55.03.07.07.1.14.1.58.05,1.16.1,1.74.15.38.03.76.06,1.17.1-.04.03-.06.06-.09.08-.71.61-1.42,1.23-2.13,1.84Z"/>
          <path class="cls-1" d="M78.08,24.63c-.06.05-.07.1-.05.17.21.91.43,1.82.64,2.74,0,.03.01.06.02.11-.17-.1-.33-.2-.49-.29-.67-.41-1.34-.81-2.01-1.22-.06-.04-.1-.04-.17,0-.8.49-1.6.97-2.4,1.45-.03.02-.06.04-.11.06.04-.19.08-.36.12-.53.18-.78.36-1.56.55-2.34.02-.06,0-.1-.05-.14-.71-.61-1.43-1.23-2.14-1.85-.02-.02-.04-.04-.08-.08.73-.06,1.43-.12,2.14-.18.26-.02.52-.04.78-.06.07,0,.11-.03.14-.1.36-.85.72-1.7,1.08-2.55.02-.04.03-.08.06-.14.03.06.04.1.06.14.36.85.72,1.7,1.08,2.55.03.07.07.1.14.1.58.05,1.16.1,1.74.15.38.03.76.06,1.17.1-.04.03-.06.06-.09.08-.71.61-1.42,1.23-2.13,1.84Z"/>
        </g>
        <g>
          <path class="cls-1" d="M28.91,7.41l3.45,7.01h-.95l-3.24-6.71h.47l-3.25,6.71h-.95l3.45-7.01h1.04ZM25.89,12.68v-.75h4.94v.75h-4.94Z"/>
          <path class="cls-1" d="M36.31,7.41c.78,0,1.46.15,2.06.44.59.29,1.05.7,1.38,1.23.33.53.5,1.14.5,1.84s-.17,1.3-.5,1.83c-.33.53-.79.94-1.38,1.23-.59.3-1.28.44-2.06.44h-3v-7.01h3ZM34.19,14.19l-.56-.54h2.72c.6,0,1.12-.12,1.57-.35.45-.23.8-.55,1.05-.96s.38-.88.38-1.42-.13-1.03-.38-1.44-.6-.73-1.05-.96c-.45-.23-.97-.35-1.57-.35h-2.72l.56-.53v6.54Z"/>
          <path class="cls-1" d="M45.09,14.55c-.78,0-1.47-.15-2.06-.46-.6-.3-1.06-.73-1.39-1.28-.33-.54-.5-1.18-.5-1.89s.17-1.36.5-1.9c.33-.54.79-.97,1.39-1.27.6-.3,1.28-.46,2.06-.46s1.46.15,2.06.46c.59.31,1.05.73,1.38,1.27.33.54.5,1.17.5,1.9s-.17,1.35-.5,1.89c-.33.55-.79.97-1.38,1.28-.59.31-1.28.46-2.06.46ZM45.09,13.75c.62,0,1.15-.12,1.61-.35.46-.23.81-.56,1.06-.99.25-.42.37-.92.37-1.5s-.12-1.08-.37-1.51c-.25-.42-.6-.75-1.06-.98s-.99-.35-1.61-.35-1.15.12-1.61.35-.81.56-1.06.98-.38.93-.38,1.51.13,1.07.38,1.5.61.75,1.06.99c.46.23.99.35,1.61.35Z"/>
          <path class="cls-1" d="M54.28,10.92l.1-.22c.57,0,1.02.09,1.37.26s.6.39.77.66.24.58.24.92c0,.37-.09.69-.27.98-.18.28-.44.51-.78.67s-.77.24-1.27.24h-4.42l.55-3.6-.55-3.41h4.26c.65,0,1.15.15,1.49.45.35.3.52.71.52,1.24,0,.27-.07.54-.2.81-.13.26-.35.49-.64.67-.29.18-.69.29-1.18.33ZM50.92,14.13l-.34-.44h3.81c.46,0,.82-.1,1.08-.31.26-.21.39-.51.39-.9,0-.42-.15-.74-.46-.96-.31-.22-.76-.34-1.36-.34h-3.03v-.71h2.98c.4,0,.73-.11,1-.33.26-.22.4-.54.4-.95,0-.31-.11-.56-.32-.75-.21-.2-.53-.29-.95-.29h-3.54l.34-.44.5,3.12-.5,3.31Z"/>
          <path class="cls-1" d="M59.21,10.92l-.53,3.29-.47-.55h5.48v.77h-5.91l.58-3.51-.58-3.51h5.86v.77h-5.43l.47-.55.53,3.29ZM63.43,10.54v.75h-4.78v-.75h4.78Z"/>
          <path class="cls-1" d="M70.46,11v-.48l3.19,3.9h-1.09l-2.66-3.31h.37l-2.66,3.31h-1.08l3.19-3.88v.43l-2.94-3.56h1.08l2.44,3h-.4l2.43-3h1.06l-2.94,3.59Z"/>
          <path class="cls-1" d="M77.48,7.41c.78,0,1.46.15,2.06.44.59.29,1.05.7,1.38,1.23.33.53.5,1.14.5,1.84s-.17,1.3-.5,1.83c-.33.53-.79.94-1.38,1.23-.59.3-1.28.44-2.06.44h-3v-7.01h3ZM75.35,14.19l-.56-.54h2.72c.6,0,1.12-.12,1.57-.35.45-.23.8-.55,1.05-.96s.38-.88.38-1.42-.13-1.03-.38-1.44-.6-.73-1.05-.96c-.45-.23-.97-.35-1.57-.35h-2.72l.56-.53v6.54Z"/>
        </g>
        <g>
          <path class="cls-1" d="M16.09,5.37H6.65c-1.36,0-2.45,1-2.61,2.35v9.61c.16,1.32,1.23,2.35,2.59,2.35h9.49c1.36,0,2.45-1.03,2.59-2.38V7.76c-.14-1.36-1.25-2.38-2.61-2.38ZM10.37,15.45s-.12-.03-.15-.06l-1.26-2.35-1.29,2.41h-1.52s1.94-3.2,1.94-3.2l-1.89-3.2h1.5c.05,0,.11.04.13.08.2.41.41.79.62,1.19l.62,1.13.72-1.39.55-1.02h1.46s-1.88,3.12-1.88,3.12l2,3.28h-1.55ZM14.67,15.58c-1.13.03-2.2-.46-2.54-1.58-.13-.44-.16-.89-.09-1.35.28-1.53,1.6-2.28,3.13-2.14v-2.01s1.36,0,1.36,0v5.96s.04.7.04.7c-.61.27-1.24.39-1.9.41Z"/>
          <path class="cls-1" d="M15.17,11.67v2.69c-.68.13-1.35.01-1.65-.65-.15-.4-.19-.86-.03-1.27.25-.63,1-.92,1.67-.78Z"/>
        </g>
      </g>
      <rect class="cls-2" width="160.6" height="33.02"/>
    </g>
  </g>
</svg>