<?xml version="1.0" encoding="UTF-8"?>
<svg id="Capa_2" data-name="Capa 2" xmlns="http://www.w3.org/2000/svg" viewBox="0 0 160.6 33.02">
  <defs>
    <style>
      .cls-1 {
        fill: #fff;
      }

      .cls-2 {
        fill: none;
      }

      .cls-3 {
        fill: #686868;
      }
    </style>
  </defs>
  <g id="Capa_1-2" data-name="Capa 1">
    <g>
      <g>
        <g>
          <path class="cls-1" d="M28.79,8.64l3.45,7.01h-.95l-3.24-6.71h.47l-3.25,6.71h-.95l3.45-7.01h1.04ZM25.77,13.91v-.75h4.94v.75h-4.94Z"/>
          <path class="cls-1" d="M36.2,8.64c.78,0,1.46.15,2.06.44.59.29,1.05.7,1.38,1.23.33.53.5,1.14.5,1.84s-.17,1.3-.5,1.83c-.33.53-.79.94-1.38,1.23-.59.3-1.28.44-2.06.44h-3v-7.01h3ZM34.07,15.42l-.56-.54h2.72c.6,0,1.12-.12,1.57-.35.45-.23.8-.55,1.05-.96s.38-.88.38-1.42-.13-1.03-.38-1.44-.6-.73-1.05-.96c-.45-.23-.97-.35-1.57-.35h-2.72l.56-.53v6.54Z"/>
          <path class="cls-1" d="M44.98,15.77c-.78,0-1.47-.15-2.06-.46-.6-.3-1.06-.73-1.39-1.28-.33-.54-.5-1.18-.5-1.89s.17-1.36.5-1.9c.33-.54.79-.97,1.39-1.27.6-.3,1.28-.46,2.06-.46s1.46.15,2.06.46c.59.31,1.05.73,1.38,1.27.33.54.5,1.17.5,1.9s-.17,1.35-.5,1.89c-.33.55-.79.97-1.38,1.28-.59.31-1.28.46-2.06.46ZM44.98,14.98c.62,0,1.15-.12,1.61-.35.46-.23.81-.56,1.06-.99.25-.42.37-.92.37-1.5s-.12-1.08-.37-1.51c-.25-.42-.6-.75-1.06-.98s-.99-.35-1.61-.35-1.15.12-1.61.35-.81.56-1.06.98-.38.93-.38,1.51.13,1.07.38,1.5.61.75,1.06.99c.46.23.99.35,1.61.35Z"/>
          <path class="cls-1" d="M54.17,12.14l.1-.22c.57,0,1.02.09,1.37.26s.6.39.77.66.24.58.24.92c0,.37-.09.69-.27.98-.18.28-.44.51-.78.67s-.77.24-1.27.24h-4.42l.55-3.6-.55-3.41h4.26c.65,0,1.15.15,1.49.45.35.3.52.71.52,1.24,0,.27-.07.54-.2.81-.13.26-.35.49-.64.67-.29.18-.69.29-1.18.33ZM50.81,15.36l-.34-.44h3.81c.46,0,.82-.1,1.08-.31.26-.21.39-.51.39-.9,0-.42-.15-.74-.46-.96-.31-.22-.76-.34-1.36-.34h-3.03v-.71h2.98c.4,0,.73-.11,1-.33.26-.22.4-.54.4-.95,0-.31-.11-.56-.32-.75-.21-.2-.53-.29-.95-.29h-3.54l.34-.44.5,3.12-.5,3.31Z"/>
          <path class="cls-1" d="M59.09,12.14l-.53,3.29-.47-.55h5.48v.77h-5.91l.58-3.51-.58-3.51h5.86v.77h-5.43l.47-.55.53,3.29ZM63.32,11.77v.75h-4.78v-.75h4.78Z"/>
          <path class="cls-1" d="M71.11,8.64c.49,0,.92.09,1.28.26.36.17.64.42.84.73.2.31.3.68.3,1.09s-.1.78-.3,1.09c-.2.31-.48.56-.84.74-.36.18-.79.27-1.28.27h-3.2v-.77h3.18c.47,0,.85-.12,1.13-.36.28-.24.42-.56.42-.97s-.14-.73-.42-.96c-.28-.24-.65-.35-1.13-.35h-3.09l.39-.43v6.68h-.88v-7.01h3.59Z"/>
          <path class="cls-1" d="M75.23,11.95h3.01c.46,0,.83-.12,1.11-.35.28-.23.42-.54.42-.92s-.14-.7-.42-.93-.65-.34-1.11-.34h-3.13l.39-.47v6.71h-.88v-7.01h3.65c.47,0,.89.09,1.24.26.36.17.63.41.84.71.2.31.3.66.3,1.07s-.1.75-.3,1.06c-.2.31-.48.54-.84.72s-.77.26-1.24.26h-3.04v-.76ZM76.78,12.37h1.08l2.93,3.28h-1.09l-2.92-3.28Z"/>
          <path class="cls-1" d="M83.17,12.14l-.53,3.29-.47-.55h5.48v.77h-5.91l.58-3.51-.58-3.51h5.86v.77h-5.43l.47-.55.53,3.29ZM87.39,11.77v.75h-4.78v-.75h4.78Z"/>
          <path class="cls-1" d="M98.02,8.64v7.01h-.84v-6.81h.35s-3.54,6.81-3.54,6.81h-.94l-3.54-6.79h.35s0,6.79,0,6.79h-.84v-7.01h1.33l3.46,6.71h-.55l3.45-6.71h1.33Z"/>
          <path class="cls-1" d="M99.73,8.64h.88v7.01h-.88v-7.01Z"/>
          <path class="cls-1" d="M103.47,12.14l-.53,3.29-.47-.55h5.48v.77h-5.91l.58-3.51-.58-3.51h5.86v.77h-5.43l.47-.55.53,3.29ZM107.7,11.77v.75h-4.78v-.75h4.78Z"/>
          <path class="cls-1" d="M109.93,11.95h3.01c.46,0,.83-.12,1.11-.35.28-.23.42-.54.42-.92s-.14-.7-.42-.93-.65-.34-1.11-.34h-3.13l.39-.47v6.71h-.88v-7.01h3.65c.47,0,.89.09,1.24.26.36.17.63.41.84.71.2.31.3.66.3,1.07s-.1.75-.3,1.06c-.2.31-.48.54-.84.72s-.77.26-1.24.26h-3.04v-.76ZM111.48,12.37h1.08l2.93,3.28h-1.09l-2.92-3.28Z"/>
          <path class="cls-1" d="M117.86,12.14l-.53,3.29-.47-.55h5.48v.77h-5.91l.58-3.51-.58-3.51h5.86v.77h-5.43l.47-.55.53,3.29ZM122.09,11.77v.75h-4.78v-.75h4.78Z"/>
          <path class="cls-1" d="M129.88,8.64c.49,0,.92.09,1.28.26.36.17.64.42.84.73.2.31.3.68.3,1.09s-.1.78-.3,1.09c-.2.31-.48.56-.84.74-.36.18-.79.27-1.28.27h-3.2v-.77h3.18c.47,0,.85-.12,1.13-.36.28-.24.42-.56.42-.97s-.14-.73-.42-.96c-.28-.24-.65-.35-1.13-.35h-3.09l.39-.43v6.68h-.88v-7.01h3.59Z"/>
          <path class="cls-1" d="M134,11.95h3.01c.46,0,.83-.12,1.11-.35.28-.23.42-.54.42-.92s-.14-.7-.42-.93-.65-.34-1.11-.34h-3.13l.39-.47v6.71h-.88v-7.01h3.65c.47,0,.89.09,1.24.26.36.17.63.41.84.71.2.31.3.66.3,1.07s-.1.75-.3,1.06c-.2.31-.48.54-.84.72s-.77.26-1.24.26h-3.04v-.76ZM135.55,12.37h1.08l2.93,3.28h-1.09l-2.92-3.28Z"/>
          <path class="cls-1" d="M144.28,15.77c-.78,0-1.47-.15-2.06-.46-.6-.3-1.06-.73-1.39-1.28-.33-.54-.5-1.18-.5-1.89s.17-1.36.5-1.9c.33-.54.79-.97,1.39-1.27.6-.3,1.28-.46,2.06-.46s1.46.15,2.06.46c.59.31,1.05.73,1.38,1.27.33.54.5,1.17.5,1.9s-.17,1.35-.5,1.89c-.33.55-.79.97-1.38,1.28-.59.31-1.28.46-2.06.46ZM144.28,14.98c.62,0,1.15-.12,1.61-.35.46-.23.81-.56,1.06-.99.25-.42.37-.92.37-1.5s-.12-1.08-.37-1.51c-.25-.42-.6-.75-1.06-.98s-.99-.35-1.61-.35-1.15.12-1.61.35-.81.56-1.06.98-.38.93-.38,1.51.13,1.07.38,1.5.61.75,1.06.99c.46.23.99.35,1.61.35Z"/>
        </g>
        <g>
          <path class="cls-1" d="M30.13,24.63c-.06.05-.07.1-.05.17.21.91.43,1.82.64,2.74,0,.03.01.06.02.11-.17-.1-.33-.2-.49-.29-.67-.41-1.34-.81-2.01-1.22-.06-.04-.1-.04-.17,0-.8.49-1.6.97-2.4,1.45-.03.02-.06.04-.11.06.04-.19.08-.36.12-.53.18-.78.36-1.56.55-2.34.02-.06,0-.1-.05-.14-.71-.61-1.43-1.23-2.14-1.85-.02-.02-.04-.04-.08-.08.73-.06,1.43-.12,2.14-.18.26-.02.52-.04.78-.06.07,0,.11-.03.14-.1.36-.85.72-1.7,1.08-2.55.02-.04.03-.08.06-.14.03.06.04.1.06.14.36.85.72,1.7,1.08,2.55.03.07.07.1.14.1.58.05,1.16.1,1.74.15.38.03.76.06,1.17.1-.04.03-.06.06-.09.08-.71.61-1.42,1.23-2.13,1.84Z"/>
          <path class="cls-1" d="M42.12,24.63c-.06.05-.07.1-.05.17.21.91.43,1.82.64,2.74,0,.03.01.06.02.11-.17-.1-.33-.2-.49-.29-.67-.41-1.34-.81-2.01-1.22-.06-.04-.1-.04-.17,0-.8.49-1.6.97-2.4,1.45-.03.02-.06.04-.11.06.04-.19.08-.36.12-.53.18-.78.36-1.56.55-2.34.02-.06,0-.1-.05-.14-.71-.61-1.43-1.23-2.14-1.85-.02-.02-.04-.04-.08-.08.73-.06,1.43-.12,2.14-.18.26-.02.52-.04.78-.06.07,0,.11-.03.14-.1.36-.85.72-1.7,1.08-2.55.02-.04.03-.08.06-.14.03.06.04.1.06.14.36.85.72,1.7,1.08,2.55.03.07.07.1.14.1.58.05,1.16.1,1.74.15.38.03.76.06,1.17.1-.04.03-.06.06-.09.08-.71.61-1.42,1.23-2.13,1.84Z"/>
          <path class="cls-1" d="M54.11,24.63c-.06.05-.07.1-.05.17.21.91.43,1.82.64,2.74,0,.03.01.06.02.11-.17-.1-.33-.2-.49-.29-.67-.41-1.34-.81-2.01-1.22-.06-.04-.1-.04-.17,0-.8.49-1.6.97-2.4,1.45-.03.02-.06.04-.11.06.04-.19.08-.36.12-.53.18-.78.36-1.56.55-2.34.02-.06,0-.1-.05-.14-.71-.61-1.43-1.23-2.14-1.85-.02-.02-.04-.04-.08-.08.73-.06,1.43-.12,2.14-.18.26-.02.52-.04.78-.06.07,0,.11-.03.14-.1.36-.85.72-1.7,1.08-2.55.02-.04.03-.08.06-.14.03.06.04.1.06.14.36.85.72,1.7,1.08,2.55.03.07.07.1.14.1.58.05,1.16.1,1.74.15.38.03.76.06,1.17.1-.04.03-.06.06-.09.08-.71.61-1.42,1.23-2.13,1.84Z"/>
          <path class="cls-1" d="M66.1,24.63c-.06.05-.07.1-.05.17.21.91.43,1.82.64,2.74,0,.03.01.06.02.11-.17-.1-.33-.2-.49-.29-.67-.41-1.34-.81-2.01-1.22-.06-.04-.1-.04-.17,0-.8.49-1.6.97-2.4,1.45-.03.02-.06.04-.11.06.04-.19.08-.36.12-.53.18-.78.36-1.56.55-2.34.02-.06,0-.1-.05-.14-.71-.61-1.43-1.23-2.14-1.85-.02-.02-.04-.04-.08-.08.73-.06,1.43-.12,2.14-.18.26-.02.52-.04.78-.06.07,0,.11-.03.14-.1.36-.85.72-1.7,1.08-2.55.02-.04.03-.08.06-.14.03.06.04.1.06.14.36.85.72,1.7,1.08,2.55.03.07.07.1.14.1.58.05,1.16.1,1.74.15.38.03.76.06,1.17.1-.04.03-.06.06-.09.08-.71.61-1.42,1.23-2.13,1.84Z"/>
          <path class="cls-3" d="M78.08,24.63c-.06.05-.07.1-.05.17.21.91.43,1.82.64,2.74,0,.03.01.06.02.11-.17-.1-.33-.2-.49-.29-.67-.41-1.34-.81-2.01-1.22-.06-.04-.1-.04-.17,0-.8.49-1.6.97-2.4,1.45-.03.02-.06.04-.11.06.04-.19.08-.36.12-.53.18-.78.36-1.56.55-2.34.02-.06,0-.1-.05-.14-.71-.61-1.43-1.23-2.14-1.85-.02-.02-.04-.04-.08-.08.73-.06,1.43-.12,2.14-.18.26-.02.52-.04.78-.06.07,0,.11-.03.14-.1.36-.85.72-1.7,1.08-2.55.02-.04.03-.08.06-.14.03.06.04.1.06.14.36.85.72,1.7,1.08,2.55.03.07.07.1.14.1.58.05,1.16.1,1.74.15.38.03.76.06,1.17.1-.04.03-.06.06-.09.08-.71.61-1.42,1.23-2.13,1.84Z"/>
        </g>
        <g>
          <path class="cls-1" d="M16.12,5.38H6.65c-1.35,0-2.44.99-2.61,2.33v9.64c.17,1.33,1.24,2.33,2.58,2.33h9.5c1.35,0,2.42-1.01,2.58-2.34V7.72c-.16-1.32-1.23-2.35-2.58-2.35ZM12.02,12c-.17.53-.56.92-1.05,1.16-.68.3-1.38.31-2.12.28v2.04h-1.33s0-6.43,0-6.43l2.04-.03c.39,0,.75.06,1.11.16.52.19.97.51,1.23,1.01.29.56.32,1.21.12,1.81ZM14.36,12.28v3.2h-1.38s0-3.29,0-3.29l-.04-1.6h1.13c.19.03.18.38.21.65.42-.47,1.01-.8,1.66-.75v1.34c-.55,0-1.2.08-1.58.45Z"/>
          <path class="cls-1" d="M10.81,11.3c-.04.98-1.08,1.04-1.96.99v-2.06s.71,0,.71,0c.28,0,.54.06.79.17.33.19.47.53.46.91Z"/>
        </g>
      </g>
      <rect class="cls-2" width="160.6" height="33.02"/>
    </g>
  </g>
</svg>