<?xml version="1.0" encoding="UTF-8"?>
<svg id="Capa_2" data-name="Capa 2" xmlns="http://www.w3.org/2000/svg" viewBox="0 0 160.6 33.02">
  <defs>
    <style>
      .cls-1 {
        fill: #fff;
      }

      .cls-2 {
        fill: none;
      }

      .cls-3 {
        fill: #686868;
      }
    </style>
  </defs>
  <g id="Capa_1-2" data-name="Capa 1">
    <g>
      <g>
        <g>
          <path class="cls-1" d="M30.15,24.63c-.06.05-.07.1-.05.17.21.91.43,1.82.64,2.74,0,.03.01.06.02.11-.17-.1-.33-.2-.49-.29-.67-.41-1.34-.81-2.01-1.22-.06-.04-.1-.04-.17,0-.8.49-1.6.97-2.4,1.45-.03.02-.06.04-.11.06.04-.19.08-.36.12-.53.18-.78.36-1.56.55-2.34.02-.06,0-.1-.05-.14-.71-.61-1.43-1.23-2.14-1.85-.02-.02-.04-.04-.08-.08.73-.06,1.43-.12,2.14-.18.26-.02.52-.04.78-.06.07,0,.11-.03.14-.1.36-.85.72-1.7,1.08-2.55.02-.04.03-.08.06-.14.03.06.04.1.06.14.36.85.72,1.7,1.08,2.55.03.07.07.1.14.1.58.05,1.16.1,1.74.15.38.03.76.06,1.17.1-.04.03-.06.06-.09.08-.71.61-1.42,1.23-2.13,1.84Z"/>
          <path class="cls-1" d="M42.14,24.63c-.06.05-.07.1-.05.17.21.91.43,1.82.64,2.74,0,.03.01.06.02.11-.17-.1-.33-.2-.49-.29-.67-.41-1.34-.81-2.01-1.22-.06-.04-.1-.04-.17,0-.8.49-1.6.97-2.4,1.45-.03.02-.06.04-.11.06.04-.19.08-.36.12-.53.18-.78.36-1.56.55-2.34.02-.06,0-.1-.05-.14-.71-.61-1.43-1.23-2.14-1.85-.02-.02-.04-.04-.08-.08.73-.06,1.43-.12,2.14-.18.26-.02.52-.04.78-.06.07,0,.11-.03.14-.1.36-.85.72-1.7,1.08-2.55.02-.04.03-.08.06-.14.03.06.04.1.06.14.36.85.72,1.7,1.08,2.55.03.07.07.1.14.1.58.05,1.16.1,1.74.15.38.03.76.06,1.17.1-.04.03-.06.06-.09.08-.71.61-1.42,1.23-2.13,1.84Z"/>
          <path class="cls-1" d="M54.13,24.63c-.06.05-.07.1-.05.17.21.91.43,1.82.64,2.74,0,.03.01.06.02.11-.17-.1-.33-.2-.49-.29-.67-.41-1.34-.81-2.01-1.22-.06-.04-.1-.04-.17,0-.8.49-1.6.97-2.4,1.45-.03.02-.06.04-.11.06.04-.19.08-.36.12-.53.18-.78.36-1.56.55-2.34.02-.06,0-.1-.05-.14-.71-.61-1.43-1.23-2.14-1.85-.02-.02-.04-.04-.08-.08.73-.06,1.43-.12,2.14-.18.26-.02.52-.04.78-.06.07,0,.11-.03.14-.1.36-.85.72-1.7,1.08-2.55.02-.04.03-.08.06-.14.03.06.04.1.06.14.36.85.72,1.7,1.08,2.55.03.07.07.1.14.1.58.05,1.16.1,1.74.15.38.03.76.06,1.17.1-.04.03-.06.06-.09.08-.71.61-1.42,1.23-2.13,1.84Z"/>
          <path class="cls-1" d="M66.12,24.63c-.06.05-.07.1-.05.17.21.91.43,1.82.64,2.74,0,.03.01.06.02.11-.17-.1-.33-.2-.49-.29-.67-.41-1.34-.81-2.01-1.22-.06-.04-.1-.04-.17,0-.8.49-1.6.97-2.4,1.45-.03.02-.06.04-.11.06.04-.19.08-.36.12-.53.18-.78.36-1.56.55-2.34.02-.06,0-.1-.05-.14-.71-.61-1.43-1.23-2.14-1.85-.02-.02-.04-.04-.08-.08.73-.06,1.43-.12,2.14-.18.26-.02.52-.04.78-.06.07,0,.11-.03.14-.1.36-.85.72-1.7,1.08-2.55.02-.04.03-.08.06-.14.03.06.04.1.06.14.36.85.72,1.7,1.08,2.55.03.07.07.1.14.1.58.05,1.16.1,1.74.15.38.03.76.06,1.17.1-.04.03-.06.06-.09.08-.71.61-1.42,1.23-2.13,1.84Z"/>
          <path class="cls-3" d="M78.11,24.63c-.06.05-.07.1-.05.17.21.91.43,1.82.64,2.74,0,.03.01.06.02.11-.17-.1-.33-.2-.49-.29-.67-.41-1.34-.81-2.01-1.22-.06-.04-.1-.04-.17,0-.8.49-1.6.97-2.4,1.45-.03.02-.06.04-.11.06.04-.19.08-.36.12-.53.18-.78.36-1.56.55-2.34.02-.06,0-.1-.05-.14-.71-.61-1.43-1.23-2.14-1.85-.02-.02-.04-.04-.08-.08.73-.06,1.43-.12,2.14-.18.26-.02.52-.04.78-.06.07,0,.11-.03.14-.1.36-.85.72-1.7,1.08-2.55.02-.04.03-.08.06-.14.03.06.04.1.06.14.36.85.72,1.7,1.08,2.55.03.07.07.1.14.1.58.05,1.16.1,1.74.15.38.03.76.06,1.17.1-.04.03-.06.06-.09.08-.71.61-1.42,1.23-2.13,1.84Z"/>
        </g>
        <g>
          <path class="cls-1" d="M28.81,8.48l3.45,7.01h-.95l-3.24-6.71h.47l-3.25,6.71h-.95l3.45-7.01h1.04ZM25.79,13.76v-.75h4.94v.75h-4.94Z"/>
          <path class="cls-1" d="M36.22,8.48c.78,0,1.46.15,2.06.44.59.29,1.05.7,1.38,1.23.33.53.5,1.14.5,1.84s-.17,1.3-.5,1.83c-.33.53-.79.94-1.38,1.23-.59.29-1.28.44-2.06.44h-3v-7.01h3ZM34.1,15.26l-.56-.54h2.72c.6,0,1.12-.12,1.57-.35.45-.23.8-.55,1.05-.96.25-.41.38-.88.38-1.42s-.13-1.03-.38-1.44-.6-.73-1.05-.96c-.45-.23-.97-.35-1.57-.35h-2.72l.56-.53v6.54Z"/>
          <path class="cls-1" d="M45,15.62c-.78,0-1.47-.15-2.06-.46s-1.06-.73-1.39-1.28c-.33-.54-.5-1.18-.5-1.89s.17-1.36.5-1.9c.33-.54.79-.96,1.39-1.27.6-.3,1.28-.46,2.06-.46s1.46.15,2.06.46c.59.31,1.05.73,1.38,1.27.33.54.5,1.18.5,1.9s-.17,1.35-.5,1.89c-.33.55-.79.97-1.38,1.28s-1.28.46-2.06.46ZM45,14.82c.62,0,1.15-.12,1.61-.35s.81-.56,1.06-.99c.25-.42.37-.92.37-1.5s-.12-1.08-.37-1.51c-.25-.42-.6-.75-1.06-.98s-.99-.35-1.61-.35-1.15.12-1.61.35-.81.56-1.06.98-.38.93-.38,1.51.13,1.07.38,1.5.61.75,1.06.99.99.35,1.61.35Z"/>
          <path class="cls-1" d="M54.19,11.99l.1-.22c.57,0,1.02.09,1.37.26.35.16.6.39.77.66s.24.58.24.92c0,.37-.09.69-.27.98-.18.28-.44.51-.78.67s-.77.24-1.27.24h-4.42l.55-3.6-.55-3.41h4.26c.65,0,1.15.15,1.49.45.35.3.52.71.52,1.24,0,.28-.07.54-.2.81-.13.26-.35.49-.64.67-.29.18-.69.29-1.18.33ZM50.83,15.21l-.34-.44h3.81c.46,0,.82-.11,1.08-.31.26-.21.39-.51.39-.9,0-.42-.15-.74-.46-.96-.31-.22-.76-.34-1.36-.34h-3.03v-.71h2.98c.4,0,.73-.11,1-.33.26-.22.4-.54.4-.95,0-.31-.11-.56-.32-.75-.21-.2-.53-.29-.95-.29h-3.54l.34-.44.5,3.12-.5,3.31Z"/>
          <path class="cls-1" d="M59.12,11.99l-.53,3.29-.47-.55h5.48v.77h-5.91l.58-3.51-.58-3.51h5.86v.77h-5.43l.47-.55.53,3.29ZM63.34,11.62v.75h-4.78v-.75h4.78Z"/>
          <path class="cls-1" d="M70.91,8.48l3.45,7.01h-.95l-3.24-6.71h.47l-3.25,6.71h-.95l3.45-7.01h1.04ZM67.89,13.76v-.75h4.94v.75h-4.94Z"/>
          <path class="cls-1" d="M80.88,8.48v.78h-5.25l.55-.56v6.8h-.88v-7.01h5.57ZM75.73,11.65h5.01v.78h-5.01v-.78Z"/>
          <path class="cls-1" d="M81.37,8.48h6.9v.78h-6.9v-.78ZM84.38,8.9h.88v6.59h-.88v-6.59Z"/>
          <path class="cls-1" d="M90.43,11.99l-.53,3.29-.47-.55h5.48v.77h-5.91l.58-3.51-.58-3.51h5.86v.77h-5.43l.47-.55.53,3.29ZM94.65,11.62v.75h-4.78v-.75h4.78Z"/>
          <path class="cls-1" d="M96.88,11.79h3.01c.46,0,.83-.12,1.11-.35.28-.23.42-.54.42-.92s-.14-.7-.42-.93c-.28-.23-.65-.34-1.11-.34h-3.13l.39-.47v6.71h-.88v-7.01h3.65c.47,0,.89.09,1.24.26.36.17.63.41.84.71.2.3.3.66.3,1.07s-.1.75-.3,1.05c-.2.31-.48.54-.84.72s-.77.26-1.24.26h-3.04v-.76ZM98.43,12.21h1.08l2.93,3.28h-1.09l-2.92-3.28Z"/>
          <path class="cls-1" d="M107.4,11.99l-.53,3.29-.47-.55h5.48v.77h-5.91l.58-3.51-.58-3.51h5.86v.77h-5.43l.47-.55.53,3.29ZM111.62,11.62v.75h-4.78v-.75h4.78Z"/>
          <path class="cls-1" d="M118.81,8.48v.78h-5.25l.55-.56v6.8h-.88v-7.01h5.57ZM113.66,11.65h5.01v.78h-5.01v-.78Z"/>
          <path class="cls-1" d="M125.58,8.48v.78h-5.25l.55-.56v6.8h-.88v-7.01h5.57ZM120.43,11.65h5.01v.78h-5.01v-.78Z"/>
          <path class="cls-1" d="M127.96,11.99l-.53,3.29-.47-.55h5.48v.77h-5.91l.58-3.51-.58-3.51h5.86v.77h-5.43l.47-.55.53,3.29ZM132.18,11.62v.75h-4.78v-.75h4.78Z"/>
          <path class="cls-1" d="M140.87,12.79c-.06.55-.26,1.04-.59,1.47-.33.43-.76.76-1.29,1-.53.24-1.14.35-1.83.35-.77,0-1.45-.15-2.03-.46-.58-.3-1.04-.73-1.36-1.28-.32-.54-.49-1.18-.49-1.89s.16-1.36.49-1.9c.32-.54.78-.96,1.36-1.27.58-.3,1.26-.46,2.03-.46.69,0,1.29.12,1.83.36.53.24.96.56,1.29.99.33.42.53.91.59,1.47h-.89c-.07-.41-.24-.77-.49-1.07-.25-.3-.57-.54-.97-.7-.4-.17-.86-.25-1.37-.25-.6,0-1.13.12-1.58.35s-.79.56-1.03.98-.36.93-.36,1.51.12,1.07.36,1.5.59.75,1.03.99.97.35,1.58.35c.52,0,.98-.08,1.37-.25.4-.17.72-.4.97-.7.25-.3.41-.66.49-1.08h.89Z"/>
          <path class="cls-1" d="M141,8.48h6.9v.78h-6.9v-.78ZM144.01,8.9h.88v6.59h-.88v-6.59Z"/>
          <path class="cls-1" d="M148.14,13.22h.89c.04.33.17.62.39.87.22.25.51.44.87.58.36.13.77.2,1.24.2.71,0,1.26-.12,1.68-.36.41-.24.62-.56.62-.98,0-.32-.13-.56-.39-.73-.26-.17-.71-.29-1.35-.37l-1.36-.17c-.85-.1-1.47-.3-1.84-.61s-.56-.72-.56-1.25c0-.42.12-.78.37-1.09s.6-.54,1.05-.71c.45-.17.98-.25,1.58-.25s1.14.09,1.61.28.84.44,1.12.77c.28.33.43.71.45,1.15h-.89c-.04-.3-.16-.56-.36-.77s-.47-.38-.8-.51c-.33-.12-.72-.18-1.16-.18-.64,0-1.16.11-1.54.34-.38.23-.58.54-.58.95,0,.31.13.55.38.71.25.16.68.29,1.29.36l1.33.18c.62.07,1.11.18,1.47.33.36.14.63.33.79.57.16.24.24.54.24.91,0,.44-.13.83-.4,1.15-.27.32-.64.57-1.12.75-.48.18-1.04.26-1.67.26s-1.21-.1-1.71-.3c-.5-.2-.89-.48-1.19-.84-.29-.36-.45-.77-.48-1.25Z"/>
        </g>
        <g>
          <path class="cls-1" d="M16.11,5.37H6.67c-1.36,0-2.43.99-2.61,2.32v9.66c.18,1.33,1.25,2.32,2.61,2.32h9.47c1.36,0,2.45-1.04,2.58-2.38V7.76c-.14-1.36-1.24-2.38-2.61-2.38ZM10.48,15.46l-.53-1.53h-2.27s-.49,1.52-.49,1.52c-.44.02-.87.02-1.34,0l1.99-5.7c.09-.23.11-.44.12-.7h1.69s2.28,6.4,2.28,6.4h-1.44ZM16.59,13.34c-.35.06-.67.04-1.02.04h-2c.07.68.59,1.02,1.26,1.05.47.02.91-.06,1.38-.22v1.09c-.26.11-.49.17-.75.22-.51.07-1.02.09-1.52-.02-.71-.16-1.28-.62-1.55-1.3-.32-.82-.28-1.75.14-2.53.34-.64.93-1.05,1.65-1.14.84-.1,1.69.13,2.12.88.23.39.33.83.32,1.29l-.05.64Z"/>
          <polygon class="cls-1" points="9.59 12.72 8.03 12.72 8.8 10.18 9.59 12.72"/>
          <path class="cls-1" d="M15.35,12.43c-.08.02-.16.04-.25.04h-1.53s.09-.34.09-.34c.14-.36.47-.56.85-.56.48,0,.86.38.83.86Z"/>
        </g>
      </g>
      <rect class="cls-2" width="160.6" height="33.02"/>
    </g>
  </g>
</svg>