<svg id="Grupo_18" data-name="Grupo 18" xmlns="http://www.w3.org/2000/svg" xmlns:xlink="http://www.w3.org/1999/xlink" width="34.528" height="34.798" viewBox="0 0 34.528 34.798">
  <defs>
    <clipPath id="clip-path">
      <rect id="Rectángulo_10" data-name="Rectángulo 10" width="34.528" height="34.798" fill="none"/>
    </clipPath>
  </defs>
  <g id="Grupo_17" data-name="Grupo 17" clip-path="url(#clip-path)">
    <path id="Trazado_29" data-name="Trazado 29" d="M29.406,4.986A17.269,17.269,0,0,0,1.877,25.106L.034,34.039a.845.845,0,0,0,.244.621.87.87,0,0,0,.611.124L9.57,32.722A17.268,17.268,0,0,0,29.406,4.986m-1.25,20.3A13.533,13.533,0,0,1,11.124,29.3l-1.067-.547L4.7,30.007l1.1-5.44-.627-1.25a13.522,13.522,0,1,1,22.979,1.974" transform="translate(0 0)" fill="#fff"/>
    <path id="Trazado_30" data-name="Trazado 30" d="M76.534,75.617a5.983,5.983,0,0,1-2.368,2.212c-2.335.981-5.444-.108-7.511-1.432a22.508,22.508,0,0,1-5.613-5.136c-1.391-1.782-2.633-4.467-2.015-6.716a5.964,5.964,0,0,1,1.855-2.615,1.481,1.481,0,0,1,1.161-.451,1.333,1.333,0,0,1,1.015.8l1.393,3.16a1.311,1.311,0,0,1-.2,1.272L63.5,67.7a1.324,1.324,0,0,0,.17,1.577,19.941,19.941,0,0,0,5.123,4.538,1.353,1.353,0,0,0,1.657-.007l.9-.881a1.3,1.3,0,0,1,1.157-.366l3.442.97a1.359,1.359,0,0,1,.818.768,1.459,1.459,0,0,1-.234,1.317" transform="translate(-50.308 -52.537)" fill="#fff"/>
  </g>
</svg>
